<?xml version="1.0" standalone="no"?>
<!DOCTYPE svg PUBLIC "-//W3C//DTD SVG 20010904//EN"
 "http://www.w3.org/TR/2001/REC-SVG-20010904/DTD/svg10.dtd">
<svg version="1.0" xmlns="http://www.w3.org/2000/svg"
 width="1080.000000pt" height="1080.000000pt" viewBox="0 0 1080.000000 1080.000000"
 preserveAspectRatio="xMidYMid meet">
<metadata>
Created by potrace 1.16, written by Peter Selinger 2001-2019
</metadata>
<g transform="translate(0.000000,1080.000000) scale(0.100000,-0.100000)"
fill="#000000" stroke="none">
<path d="M5035 8295 c-339 -47 -617 -131 -920 -280 -287 -140 -524 -301 -800
-542 -221 -194 -346 -332 -433 -479 -35 -58 -44 -85 -51 -145 -7 -59 -16 -86
-46 -134 -169 -275 -298 -676 -351 -1093 -26 -204 -16 -587 21 -772 128 -655
387 -1153 821 -1582 227 -224 451 -379 799 -551 590 -292 1193 -383 1795 -271
528 98 1074 367 1440 710 345 322 579 652 778 1094 108 240 196 536 243 815
18 107 22 172 23 370 1 244 -11 363 -50 519 -8 32 -13 60 -10 63 6 6 90 -254
112 -349 21 -92 39 -104 29 -20 -43 358 -234 779 -487 1072 -73 85 -201 210
-146 143 56 -69 61 -200 12 -301 -118 -242 -397 -294 -573 -108 -162 172 -99
450 126 553 80 37 175 37 263 0 l65 -27 -190 188 c-434 428 -837 664 -1368
801 -195 51 -403 84 -625 101 -276 22 -693 -13 -882 -74 -44 -14 -43 -14 82
-15 161 -1 408 -33 563 -72 505 -127 815 -377 1039 -839 114 -234 142 -450 91
-715 -32 -167 -43 -357 -26 -447 7 -35 29 -97 48 -138 48 -102 179 -232 373
-370 281 -202 473 -426 611 -715 92 -193 126 -363 115 -585 -7 -152 -22 -241
-67 -383 -16 -55 -29 -101 -27 -103 4 -3 105 128 186 243 188 264 342 580 438
896 72 238 97 378 109 627 16 298 -58 714 -182 1030 -77 197 -93 240 -88 240
13 0 77 -113 131 -230 132 -290 191 -550 201 -890 6 -212 -8 -380 -48 -571
-127 -616 -450 -1203 -894 -1627 -256 -245 -542 -427 -876 -561 -357 -142
-663 -202 -1028 -201 -326 0 -546 35 -858 134 -224 71 -410 154 -606 270 -440
261 -836 683 -1060 1131 -205 410 -311 933 -279 1373 48 654 299 1258 718
1726 250 280 508 478 843 650 412 211 915 321 1371 302 274 -11 444 -35 670
-91 262 -66 475 -151 805 -320 206 -106 284 -133 349 -121 56 11 48 28 -41 83
-34 21 -106 66 -160 100 -210 133 -556 293 -793 368 -308 96 -556 136 -890
141 -216 3 -265 0 -415 -21z"/>
<path d="M5760 7492 c-136 -62 -233 -119 -346 -203 -98 -72 -284 -232 -297
-254 -5 -10 4 -15 40 -21 95 -13 281 -101 358 -169 21 -19 41 -33 43 -31 9 10
-28 74 -52 89 -33 22 -33 53 -3 127 38 92 234 410 253 410 3 0 2 -5 -1 -10 -3
-6 -13 -102 -21 -214 -14 -203 -22 -253 -70 -439 -14 -54 -24 -103 -22 -108 2
-6 18 3 37 20 18 16 30 34 27 39 -3 6 -2 12 2 14 9 3 72 161 97 243 42 137 94
555 69 555 -5 0 -56 -22 -114 -48z"/>
<path d="M4634 7243 c-104 -131 -158 -220 -201 -333 -61 -162 -52 -241 38
-310 24 -18 50 -40 57 -49 6 -8 12 -13 13 -10 8 74 17 122 49 264 30 132 118
429 157 532 3 7 -2 13 -11 13 -9 0 -55 -48 -102 -107z"/>
<path d="M7415 6865 c-45 -23 -92 -81 -104 -130 -27 -108 38 -210 151 -235 50
-11 58 -10 103 11 86 41 136 131 121 213 -9 48 -59 112 -105 136 -48 24 -123
26 -166 5z"/>
<path d="M5050 6469 c-48 -13 -150 -61 -150 -71 0 -4 18 -8 40 -8 109 0 264
-47 433 -131 133 -67 143 -63 81 31 -90 138 -171 190 -294 189 -41 0 -91 -5
-110 -10z"/>
<path d="M5964 6040 c-29 -4 -57 -11 -63 -14 -22 -14 -10 -55 35 -121 51 -75
52 -72 -21 -102 l-30 -13 35 6 c64 11 133 73 204 186 17 25 17 27 -3 47 -23
23 -61 25 -157 11z"/>
<path d="M5495 5753 c-75 -10 -199 -45 -247 -69 -102 -52 -214 -131 -257 -183
-40 -48 -46 -62 -58 -135 -14 -83 -10 -248 7 -315 8 -31 5 -39 -31 -85 -64
-80 -127 -220 -151 -333 -16 -79 -19 -120 -14 -208 10 -205 72 -346 225 -516
35 -39 75 -70 133 -100 80 -42 86 -44 173 -44 86 0 92 2 152 37 82 51 217 177
345 324 153 175 216 225 371 296 45 21 44 34 12 -169 -56 -344 -139 -564 -291
-766 -77 -103 -236 -254 -299 -286 -26 -13 -44 -25 -41 -28 3 -3 59 0 126 7
226 21 417 97 582 230 191 153 299 316 354 530 28 111 26 364 -4 475 -25 89
-85 221 -133 291 -114 167 -302 303 -509 369 -114 37 -306 46 -411 20 -194
-47 -338 -141 -428 -279 -60 -91 -83 -164 -89 -278 -5 -107 5 -165 43 -241 22
-43 23 -46 5 -37 -34 18 -90 113 -116 199 -19 64 -18 184 4 262 55 196 224
367 501 505 176 87 305 123 448 125 l78 1 -40 13 c-55 18 -233 18 -330 0 -243
-47 -421 -130 -587 -277 -69 -60 -82 -65 -50 -17 9 14 39 59 67 100 27 41 54
83 61 95 28 52 224 291 289 352 55 53 89 76 143 98 40 16 72 32 72 37 0 7 -51
7 -105 0z"/>
<path d="M6831 3625 c-1 -26 -59 -148 -105 -219 -50 -79 -167 -208 -244 -270
-65 -52 -186 -129 -265 -168 -22 -11 -37 -22 -34 -24 3 -3 19 2 35 10 23 12
31 13 34 4 5 -15 198 76 272 129 69 48 160 146 200 213 38 64 83 175 91 222 3
18 10 48 16 66 6 18 8 38 6 45 -3 6 -6 3 -6 -8z"/>
</g>
</svg>
